<svg width="207" height="50" viewBox="0 0 207 50" fill="none" xmlns="http://www.w3.org/2000/svg">
<g id="Layer_1" clip-path="url(#clip0_246_1447)">
<g id="Group">
<g id="Group_2">
<path id="Vector" d="M185.016 37.3589C184.356 35.081 184.99 33.0532 186.079 31.0384C187.706 28.0417 189.199 24.9809 190.768 21.9521C191.376 20.7778 191.972 19.5971 192.67 18.4742C193.458 17.2037 194.547 16.4015 196.174 16.44C199.46 16.5235 202.753 16.5299 206.039 16.5748C206.904 16.5876 207.237 17.1459 206.84 17.9223C203.586 24.2943 200.332 30.6598 197.065 37.0253C195.457 40.1567 193.849 43.2817 192.216 46.3939C191.908 46.9778 191.53 47.5296 191.127 48.0494C190.87 48.3766 190.512 48.351 190.249 47.9788C189.986 47.5168 189.705 47.0676 189.474 46.5928C188.289 44.1993 187.117 41.8058 185.944 39.4059C185.637 38.7193 185.33 38.0391 185.022 37.3525L185.016 37.3589Z" fill="white"/>
<path id="Vector_2" d="M171.852 28.5615C171.519 28.1316 171.237 27.8621 171.064 27.5348C169.719 24.9296 168.386 22.3243 167.073 19.7063C166.061 17.6914 166.311 15.7406 167.323 13.7771C168.784 10.9409 170.148 8.05327 171.576 5.19778C172.159 4.03633 172.774 2.8813 173.428 1.75836C174.017 0.757329 174.959 0.205481 176.112 0.16698C178.648 0.0835613 181.185 0.0578939 183.728 0.0322266C184.196 0.0322266 184.67 0.0963949 185.131 0.160563C185.797 0.243982 186.06 0.705995 185.772 1.29634C184.157 4.5946 182.537 7.89285 180.916 11.1911C178.68 15.7535 176.445 20.3223 174.203 24.8782C173.748 25.8022 173.287 26.7327 172.768 27.6246C172.569 27.9711 172.198 28.215 171.852 28.5679V28.5615Z" fill="#FFD900"/>
<path id="Vector_3" d="M189.506 48.3704C189.532 48.9351 189.237 49.1725 188.699 49.1853C187.162 49.2238 185.624 49.2623 184.087 49.3265C182.678 49.3842 181.691 48.7554 181.095 47.5298C179.616 44.4754 178.168 41.4081 176.695 38.3473C175.913 36.7174 175.087 35.1132 174.305 33.4833C173.748 32.3283 173.223 31.1604 172.704 29.9926C172.409 29.3316 172.55 28.8568 173.172 28.8439C175.157 28.799 177.156 28.8247 179.142 28.9209C180.045 28.9659 180.551 29.6717 180.916 30.4482C182.05 32.8481 183.184 35.248 184.311 37.6543C184.631 38.3345 184.945 39.0146 185.265 39.6884C185.816 40.8113 186.374 41.9279 186.918 43.0508C187.783 44.8219 188.641 46.5993 189.506 48.3768V48.3704Z" fill="white"/>
</g>
<path id="Vector_4" d="M169.2 29.5367C167.938 27.1368 166.676 24.7434 165.433 22.337C162.359 16.3758 159.322 10.3953 156.209 4.45973C155.69 3.47154 154.979 2.53468 154.179 1.75183C152.744 0.352957 150.828 0.0962837 148.913 0.0321153C147.273 -0.0192194 145.633 0.0128648 143.994 0.0321153C143.577 0.0321153 143.142 0.0770332 142.744 0.211787C142.315 0.352957 141.989 0.635298 142.309 1.17431C142.456 1.41815 142.559 1.69408 142.693 1.94433C145.742 7.88633 148.785 13.8347 151.834 19.7767C153.839 23.6782 155.78 27.6181 157.92 31.449C158.547 32.5719 158.342 33.3548 157.862 34.3109C156.562 36.884 155.274 39.4636 153.98 42.0367L153.384 43.2303C152.577 44.8345 151.77 46.4387 150.963 48.0429C150.848 48.2739 150.764 48.4536 150.707 48.6076L150.694 48.6397C150.393 49.2429 150.809 49.9487 151.469 49.9936C151.469 49.9936 151.469 49.9936 151.469 50H161.379C161.923 50 162.423 49.692 162.666 49.2043L163.537 47.4461C163.569 47.3884 163.608 47.3306 163.633 47.2665C165.491 43.4998 167.355 39.7331 169.258 35.9921C170.366 33.8103 170.321 31.68 169.194 29.5367H169.2Z" fill="#FFD900"/>
</g>
<g id="Group_3">
<g id="Group_4">
<path id="Vector_5" d="M12.837 15.3362L7.50107 25.5582V31.7505H5.36157V25.5582L0 15.3362H2.37651L6.41851 23.6524L10.4605 15.3362H12.837Z" fill="white"/>
<path id="Vector_6" d="M17.2377 17.0816V22.568H23.2078V24.3326H17.2377V29.9859H23.9124V31.7505H15.0982V15.3105H23.9124V17.0752H17.2377V17.0816Z" fill="white"/>
<path id="Vector_7" d="M29.2997 30.0114H35.0392V31.7568H27.1602V15.3425H29.2997V30.0178V30.0114Z" fill="white"/>
<path id="Vector_8" d="M39.4527 30.0114H45.1922V31.7568H37.3132V15.3425H39.4527V30.0178V30.0114Z" fill="white"/>
<path id="Vector_9" d="M50.7395 30.8458C49.484 30.1335 48.4911 29.1325 47.7672 27.8556C47.037 26.5786 46.6719 25.1348 46.6719 23.5306C46.6719 21.9264 47.037 20.489 47.7672 19.2057C48.4975 17.9223 49.4904 16.9277 50.7395 16.2154C51.995 15.5031 53.3786 15.1438 54.9032 15.1438C56.4277 15.1438 57.837 15.5031 59.0861 16.2154C60.3416 16.9277 61.3281 17.9223 62.0455 19.1928C62.7694 20.4634 63.1281 21.9071 63.1281 23.5242C63.1281 25.1412 62.7694 26.585 62.0455 27.8556C61.3217 29.1261 60.3352 30.1207 59.0861 30.833C57.8306 31.5452 56.4342 31.9046 54.9032 31.9046C53.3722 31.9046 51.995 31.5452 50.7395 30.833V30.8458ZM57.9907 29.2544C58.9068 28.7218 59.6306 27.9582 60.1559 26.97C60.6811 25.9818 60.9438 24.8332 60.9438 23.5306C60.9438 22.228 60.6811 21.0601 60.1559 20.0783C59.6306 19.0966 58.9132 18.3394 58.0036 17.8068C57.0939 17.2742 56.0626 17.0047 54.8968 17.0047C53.7309 17.0047 52.6996 17.2742 51.79 17.8068C50.8804 18.3394 50.163 19.0966 49.6377 20.0783C49.1124 21.0601 48.8498 22.2087 48.8498 23.5306C48.8498 24.8525 49.1124 25.9818 49.6377 26.97C50.163 27.9582 50.8868 28.7218 51.8028 29.2544C52.7189 29.787 53.7502 30.0565 54.8968 30.0565C56.0434 30.0565 57.0747 29.787 57.9907 29.2544Z" fill="white"/>
<path id="Vector_10" d="M86.5537 15.3362L81.8071 31.7505H79.4114L75.6 18.5382L71.6477 31.7505L69.2712 31.7761L64.6847 15.3362H66.9651L70.5395 29.2543L74.4918 15.3362H76.8875L80.6477 29.2094L84.2477 15.3362H86.5537Z" fill="white"/>
<path id="Vector_11" d="M104.048 15.2144L98.1929 31.7505H93.158L87.3032 15.2144H91.5822L95.6755 27.7015L99.7879 15.2144H104.041H104.048Z" fill="white"/>
<path id="Vector_12" d="M109.736 15.2144V31.7505H105.713V15.2144H109.736Z" fill="white"/>
<path id="Vector_13" d="M115.379 31.327C114.425 30.9356 113.656 30.3516 113.086 29.5816C112.516 28.8116 112.215 27.8876 112.183 26.8031H116.462C116.526 27.4127 116.737 27.8811 117.096 28.202C117.455 28.5228 117.929 28.6832 118.505 28.6832C119.082 28.6832 119.569 28.5485 119.915 28.2726C120.26 27.9966 120.433 27.618 120.433 27.1304C120.433 26.7197 120.299 26.386 120.023 26.1165C119.748 25.847 119.415 25.6288 119.011 25.4556C118.614 25.2823 118.044 25.0898 117.307 24.8652C116.244 24.538 115.373 24.2043 114.7 23.877C114.028 23.5498 113.445 23.0621 112.958 22.414C112.471 21.7723 112.228 20.9317 112.228 19.8922C112.228 18.3521 112.785 17.1458 113.9 16.2795C115.014 15.4068 116.462 14.9705 118.249 14.9705C120.036 14.9705 121.535 15.4068 122.65 16.2795C123.764 17.1522 124.36 18.365 124.437 19.9178H120.088C120.056 19.3852 119.863 18.9617 119.498 18.6601C119.14 18.3521 118.678 18.1981 118.115 18.1981C117.628 18.1981 117.237 18.3265 116.936 18.5896C116.635 18.8462 116.488 19.2248 116.488 19.7061C116.488 20.2387 116.737 20.6558 117.237 20.9574C117.737 21.2525 118.525 21.5798 119.588 21.9199C120.651 22.2792 121.522 22.6257 122.182 22.9594C122.848 23.2867 123.425 23.7679 123.912 24.3968C124.399 25.0256 124.642 25.8342 124.642 26.8224C124.642 27.8106 124.405 28.6191 123.925 29.3891C123.444 30.1591 122.752 30.7687 121.843 31.2243C120.933 31.6799 119.857 31.9045 118.621 31.9045C117.384 31.9045 116.334 31.7056 115.373 31.3141L115.379 31.327Z" fill="white"/>
<path id="Vector_14" d="M137.389 28.8309H131.227L130.241 31.7505H126.032L132.002 15.2144H136.659L142.629 31.7505H138.376L137.389 28.8309ZM136.352 25.7251L134.308 19.6741L132.284 25.7251H136.352Z" fill="white"/>
</g>
<g id="Group_5">
<path id="Vector_15" d="M83.21 41.8442H80.0263L79.5139 43.3522H77.3359L80.4235 34.8049H82.832L85.9196 43.3522H83.7224L83.21 41.8442ZM82.6783 40.24L81.6213 37.1086L80.5772 40.24H82.6783Z" fill="#FFD900"/>
<path id="Vector_16" d="M88.9302 34.8049V43.3522H86.8548V34.8049H88.9302Z" fill="#FFD900"/>
<path id="Vector_17" d="M102.67 34.8049V43.3522H100.595V38.2251L98.6861 43.3522H97.0078L95.0861 38.2187V43.3522H93.0107V34.8049H95.4641L97.8598 40.7213L100.23 34.8049H102.67Z" fill="#FFD900"/>
<path id="Vector_18" d="M105.463 43.0248C104.932 42.7425 104.515 42.3382 104.214 41.8056C103.913 41.2794 103.759 40.6634 103.759 39.9576C103.759 39.2517 103.913 38.6421 104.221 38.1159C104.528 37.5833 104.951 37.1791 105.483 36.8903C106.014 36.608 106.616 36.4668 107.283 36.4668C107.949 36.4668 108.544 36.608 109.083 36.8903C109.614 37.1726 110.037 37.5833 110.344 38.1159C110.652 38.6485 110.806 39.2645 110.806 39.9576C110.806 40.6506 110.652 41.273 110.338 41.7992C110.024 42.3318 109.601 42.736 109.063 43.0248C108.525 43.3071 107.923 43.4483 107.257 43.4483C106.591 43.4483 105.995 43.3071 105.463 43.0248ZM108.269 41.2088C108.551 40.9137 108.685 40.4966 108.685 39.9576C108.685 39.4185 108.551 38.995 108.275 38.7063C108.006 38.4111 107.667 38.2699 107.276 38.2699C106.885 38.2699 106.533 38.4111 106.27 38.6999C106.001 38.9886 105.867 39.4057 105.867 39.9576C105.867 40.5094 106.001 40.9201 106.264 41.2088C106.527 41.4976 106.86 41.6452 107.257 41.6452C107.654 41.6452 107.994 41.4976 108.269 41.2088Z" fill="#FFD900"/>
<path id="Vector_19" d="M114.822 36.7556C115.187 36.5631 115.604 36.4605 116.071 36.4605C116.628 36.4605 117.135 36.6016 117.589 36.884C118.044 37.1663 118.403 37.5706 118.665 38.1032C118.928 38.6294 119.063 39.2454 119.063 39.9384C119.063 40.6314 118.928 41.2538 118.665 41.78C118.403 42.3126 118.044 42.7233 117.589 43.0121C117.135 43.3008 116.628 43.442 116.071 43.442C115.591 43.442 115.174 43.3457 114.822 43.1532C114.463 42.9607 114.188 42.7105 113.983 42.3896V43.3393H111.907V34.3301H113.983V37.5064C114.175 37.192 114.457 36.9353 114.822 36.7428V36.7556ZM116.52 38.7192C116.231 38.424 115.879 38.2764 115.456 38.2764C115.033 38.2764 114.694 38.424 114.406 38.7256C114.117 39.0272 113.977 39.4379 113.977 39.9576C113.977 40.4774 114.117 40.8881 114.406 41.1897C114.694 41.4913 115.046 41.6389 115.456 41.6389C115.866 41.6389 116.225 41.4849 116.513 41.1833C116.801 40.8817 116.949 40.4646 116.949 39.9448C116.949 39.425 116.808 39.0208 116.52 38.7192Z" fill="#FFD900"/>
<path id="Vector_20" d="M120.305 35.53C120.075 35.3183 119.959 35.0488 119.959 34.7343C119.959 34.4199 120.075 34.1376 120.305 33.9258C120.536 33.7141 120.837 33.605 121.196 33.605C121.554 33.605 121.843 33.7141 122.08 33.9258C122.317 34.1376 122.426 34.4135 122.426 34.7343C122.426 35.0552 122.31 35.3183 122.08 35.53C121.849 35.7418 121.554 35.8509 121.196 35.8509C120.837 35.8509 120.536 35.7418 120.305 35.53ZM122.233 36.5567V43.3457H120.158V36.5567H122.233Z" fill="#FFD900"/>
<path id="Vector_21" d="M125.821 34.343V43.3523H123.745V34.343H125.821Z" fill="#FFD900"/>
<path id="Vector_22" d="M127.473 35.53C127.243 35.3183 127.127 35.0488 127.127 34.7343C127.127 34.4199 127.243 34.1376 127.473 33.9258C127.704 33.7141 128.005 33.605 128.364 33.605C128.722 33.605 129.011 33.7141 129.248 33.9258C129.485 34.1376 129.594 34.4135 129.594 34.7343C129.594 35.0552 129.478 35.3183 129.248 35.53C129.017 35.7418 128.722 35.8509 128.364 35.8509C128.005 35.8509 127.704 35.7418 127.473 35.53ZM129.401 36.5567V43.3457H127.326V36.5567H129.401Z" fill="#FFD900"/>
<path id="Vector_23" d="M134.686 41.5876V43.3523H133.629C132.873 43.3523 132.29 43.1662 131.868 42.8004C131.445 42.4282 131.233 41.8315 131.233 40.9909V38.2894H130.407V36.5633H131.233V34.9077H133.309V36.5633H134.667V38.2894H133.309V41.0165C133.309 41.2219 133.36 41.3631 133.456 41.4529C133.552 41.5427 133.712 41.5876 133.943 41.5876H134.686Z" fill="#FFD900"/>
<path id="Vector_24" d="M142.77 36.5566L138.517 46.5733H136.281L137.838 43.1147L135.077 36.5566H137.396L138.965 40.8046L140.522 36.5566H142.77Z" fill="#FFD900"/>
</g>
</g>
</g>
<defs>
<clipPath id="clip0_246_1447">
<rect width="207" height="50" fill="white"/>
</clipPath>
</defs>
</svg>
